<svg xmlns="http://www.w3.org/2000/svg" viewBox="4 4 56 56">
	<title>Saishumin</title>
	<rect width="64" height="64" rx="16" fill="#d7bd85" />
	<rect x="4.75" y="4.75" width="54.5" height="54.5" rx="14" fill="none" stroke="#fff1d6" stroke-opacity=".24" stroke-width="1.5" />
	<path d="M9 64C4 50 3 37 5 24 8 11 18 2 28-1h8c10 3 20 12 23 25 2 13 1 26-4 40Z" fill="#503b37" />
	<path d="M12 64C8 51 7 37 9 25 12 13 21 4 29 1h6c8 3 17 12 20 24 2 13-1 27-3 39Z" fill="#f5ad50" />
	<path d="M29 2C18 8 12 20 12 35c0 10 2 20 4 29h14V2Z" fill="#f9bd60" />
	<path d="M35 2v62h13c2-9 4-19 4-29 0-15-6-27-17-33Z" fill="#df8d3f" />
	<path d="M19 16h6v7h-6Zm20 0h6v7h-6ZM16 28h7v5h-7Zm25 0h7v5h-7ZM19 39h5v6h-5Zm21 0h5v6h-5ZM15 50h6v7h-6Zm28 0h6v7h-6Z" fill="#e99a43" opacity=".72" />
	<ellipse cx="22.5" cy="28" rx="8" ry="3.6" fill="#382c31" transform="rotate(-11 22.5 28)" />
	<ellipse cx="41.5" cy="28" rx="8" ry="3.6" fill="#382c31" transform="rotate(11 41.5 28)" />
	<path d="M16 43q16-12 32 0 1 8-16 8T16 43Z" fill="#382c31" />
	<path d="M24 46q8-5 16 0-8 2-16 0Z" fill="#fffaf0" />
</svg>
